<svg width="44" height="31" viewBox="0 0 44 31" fill="none" xmlns="http://www.w3.org/2000/svg">
<path d="M23.2259 16.6368L16.561 28.0516L9.89611 16.6368H23.2259ZM25.0114 15.6166H8.10339L16.561 30.0707L25.0114 15.6166Z" fill="white"/>
<path d="M34.8137 2.43933L41.4786 13.8542H28.1488L34.8137 2.43933ZM34.8137 0.398926L26.3561 14.853H43.2713L34.8137 0.398926Z" fill="white"/>
<path d="M0 0.398926L7.09143 13.1836L14.8406 0.719951L0 0.398926Z" fill="#4CAF4F"/>
<path d="M16.5612 1.5188L23.9997 14.2321H9.1084L16.5612 1.5188Z" fill="#4CAF4F"/>
<path d="M25.9152 17.0078L33.3608 30.0707H18.1154L25.6838 17.0078H25.9152Z" fill="#4CAF4F"/>
<path d="M27.5271 16.2158L34.8137 29.0789L42.2014 16.2158H27.5271Z" fill="#4CAF4F"/>
</svg>
